<svg width="46" height="35" viewBox="0 0 46 35" fill="none" xmlns="http://www.w3.org/2000/svg">
<g clip-path="url(#clip0_11_498)">
<path d="M43.897 18.3546C44.7328 18.3546 45.2901 18.9803 45.2901 19.7451C45.2901 20.5098 44.6632 21.2051 43.897 21.2051C43.1308 21.2051 42.5039 20.5794 42.5039 19.7451C42.5039 18.9803 43.1308 18.3546 43.897 18.3546ZM43.897 18.146C43.0612 18.146 42.2949 18.8413 42.2949 19.7451C42.2949 20.6489 43.0612 21.3441 43.897 21.3441C44.8025 21.3441 45.499 20.6489 45.499 19.7451C45.499 18.8413 44.8025 18.146 43.897 18.146ZM43.5487 19.0498H43.897C44.0363 19.0498 44.2453 19.0498 44.2453 19.3279C44.2453 19.606 44.0363 19.606 43.897 19.606H43.5487V19.0498ZM43.3397 20.5794H43.5487V19.8146H43.8273C44.106 19.8146 44.1756 19.8841 44.1756 20.1622C44.1756 20.4403 44.2453 20.5098 44.2453 20.5794H44.5239C44.4543 20.4403 44.4542 20.2318 44.4542 20.0231C44.4542 19.8146 44.3846 19.7451 44.1756 19.6755C44.5239 19.606 44.5239 19.3279 44.5239 19.2584C44.5239 18.8413 44.0363 18.8413 43.9667 18.8413H43.3397V20.5794Z" fill="#B1B3B4"/>
<path d="M2.31296 27.7402C3.14882 25.5154 4.05433 23.2906 5.23845 21.2049C10.2536 19.7449 11.2287 20.8573 11.2287 19.5363C11.2287 19.4668 11.2984 19.1887 10.8108 19.0496C10.1143 18.8411 8.37289 19.0496 6.21361 19.5363C7.18875 17.7287 8.30326 15.921 9.62667 14.322C12.5521 13.6962 13.597 13.4877 14.0845 13.4877C14.5721 13.4877 14.5721 13.6267 15.408 13.6267C15.7562 13.6267 16.0349 13.2791 16.0349 12.8619C16.0349 12.2362 14.9901 12.0972 14.5025 12.0972C12.9701 12.0972 10.4625 12.5839 8.99981 12.9315C8.44252 13.0705 7.18875 13.2791 7.18875 14.1134C7.18875 14.322 7.32807 14.6001 7.60671 14.6001C9.06944 12.1667 4.4026 19.9534 2.8702 22.6649C2.38262 23.7078 0.501953 27.7402 0.501953 28.7136C0.501953 29.1307 0.850225 29.6869 1.33781 29.6869C1.75573 29.6869 1.89504 29.3393 1.9647 28.9916L2.31296 27.7402Z" fill="#B1B3B4"/>
<path fill-rule="evenodd" clip-rule="evenodd" d="M9.20898 26.4193C9.20898 26.6974 9.41794 27.045 9.76621 27.045C10.3234 27.045 10.3931 26.4193 10.5324 26.0022C11.7165 21.9002 13.8061 19.884 13.8061 19.3278C13.8061 19.0497 13.5972 18.8411 13.3186 18.8411C12.4827 18.8411 9.20898 24.8897 9.20898 26.4193ZM15.7565 14.0439C15.1296 14.0439 14.2241 15.2258 14.2241 15.8516C14.2241 16.1992 14.433 16.4773 14.7813 16.4773C15.4779 16.4773 16.3834 15.2954 16.3834 14.6696C16.3834 14.2525 16.1744 14.0439 15.7565 14.0439Z" fill="#B1B3B4"/>
<path d="M15.4779 17.7982C15.1296 17.8678 14.5724 17.9373 14.5724 18.424C14.5724 18.7716 15.06 18.9801 15.3386 18.9801C15.5476 18.9801 15.6868 18.9106 15.8958 18.9106C14.1545 22.1783 13.7365 23.6383 13.7365 25.0983C13.6669 26.2802 14.5027 26.8365 15.1296 26.8365C16.3834 26.8365 17.4282 25.5155 18.0551 24.6117C18.2641 24.3336 19.0999 23.0821 19.0999 22.7345C19.0999 22.5259 18.8909 22.3868 18.682 22.3868C18.4034 22.3868 18.2641 22.5955 18.1248 22.804C17.6372 23.6383 16.4531 25.5155 15.5476 25.5155C15.1296 25.5155 14.9903 25.1679 14.9903 24.8202C14.9903 23.1516 16.662 19.884 17.5675 18.4935C18.5427 18.2154 19.5179 17.7982 20.493 17.7287C20.9109 17.6592 21.3985 17.6592 21.3985 17.1725C21.3985 16.6859 21.0502 16.5468 20.6323 16.5468C20.0054 16.5468 19.2392 16.7554 18.6123 16.964C18.8909 16.4077 20.0751 15.1563 20.0751 14.6001C20.0751 14.322 19.7964 14.0439 19.5875 14.0439C18.9606 14.0439 17.1496 16.964 16.7317 17.5897L15.4779 17.7982Z" fill="#B1B3B4"/>
<path fill-rule="evenodd" clip-rule="evenodd" d="M24.8125 25.9325C24.8125 26.2106 25.0215 26.5583 25.3697 26.5583C25.927 26.5583 25.9966 25.9325 26.1359 25.5153C27.3201 21.4134 29.4097 19.3972 29.4097 18.841C29.4097 18.5629 29.2007 18.3543 28.9221 18.3543C28.0166 18.3543 24.8125 24.403 24.8125 25.9325ZM31.36 13.5571C30.7331 13.5571 29.8276 14.7391 29.8276 15.3648C29.8276 15.7124 30.0366 15.9905 30.3848 15.9905C31.0814 15.9905 31.9869 14.8086 31.9869 14.1829C31.9869 13.7657 31.7779 13.5571 31.36 13.5571Z" fill="#B1B3B4"/>
<path d="M31.7066 19.0499C30.9404 19.0499 28.8508 23.43 28.4329 24.3338C28.2239 24.6814 27.9453 25.3071 27.9453 25.7243C27.9453 26.0719 28.1543 26.35 28.5025 26.35C29.0598 26.35 29.3384 25.5852 29.5474 25.2376C30.3135 23.8471 31.219 22.5261 32.5425 21.6919L32.6121 21.7614C31.9156 22.8042 31.2887 24.1947 31.2887 25.5157C31.2887 26.2804 31.5673 27.81 32.5425 27.81C32.8211 27.81 33.0997 27.5319 33.0997 27.2538C33.0997 26.9062 32.5425 26.4891 32.5425 25.4462C32.6818 22.3176 35.468 20.3013 35.468 19.467C35.468 19.1194 35.259 18.8413 34.9107 18.8413C34.0052 18.8413 31.7066 21.0661 31.0797 21.8309L31.0101 21.7614C31.1494 21.2052 32.1942 20.0928 32.1942 19.5366C32.2639 19.2585 31.9852 19.0499 31.7066 19.0499Z" fill="#B1B3B4"/>
<path fill-rule="evenodd" clip-rule="evenodd" d="M36.5122 22.8042C36.5818 22.3176 37.0694 21.5528 37.6267 20.9271C38.1839 20.2318 38.8108 19.6756 39.2983 19.6756C39.5074 19.6756 39.577 19.7452 39.577 19.9537C39.577 20.4404 39.0198 21.0661 38.7411 21.3442C38.0446 22.0395 37.4177 22.5262 36.5122 22.8042ZM39.8556 18.2852C38.3928 18.2852 34.9102 21.2052 34.9102 24.3338C34.9102 25.5157 35.746 26.2109 36.8605 26.2805C38.9501 26.35 42.1542 23.2909 42.2239 22.3871C42.2239 22.1785 42.0149 22.0395 41.8756 22.0395C41.388 22.0395 39.6466 24.9595 37.4873 24.9595C36.7212 24.9595 36.1639 24.5423 36.3033 23.7776C38.8108 23.1519 40.9004 20.7185 40.9004 19.189C40.8308 18.7023 40.3432 18.2852 39.8556 18.2852Z" fill="#B1B3B4"/>
<path d="M25.1592 19.8841C27.8061 15.3649 37.4881 3.19813 38.0453 1.18192C38.1846 0.556197 37.4184 0 36.7915 0C35.6771 0 34.4233 2.01621 33.7964 2.78098L28.224 10.3591C21.3979 20.0926 18.4028 25.7241 16.7311 30.7994C16.0345 32.8851 17.2186 34.2061 18.6117 33.928C20.3531 33.6499 21.189 33.2327 22.1641 32.8156C24.1144 31.9813 34.4929 31.0775 36.6522 31.0775C37.0005 31.0775 39.5777 31.7727 39.5777 29.826C39.5777 27.9489 30.035 27.5317 20.0048 30.5213C21.1193 26.767 23.1393 23.2908 25.1592 19.8841Z" fill="#CD0039"/>
</g>
<defs>
<clipPath id="clip0_11_498">
<rect width="44.9967" height="34.31" fill="white" transform="translate(0.501953)"/>
</clipPath>
</defs>
</svg>
