<svg width="22" height="22" viewBox="0 0 22 22" fill="none" xmlns="http://www.w3.org/2000/svg">
<path d="M19.7363 7.36054H10.8359L6.69336 1.15137C6.5293 0.853564 6.29688 0.689773 5.99609 0.659993C5.69531 0.630212 5.4082 0.734443 5.13477 0.972685C4.72461 1.44917 4.69727 1.92565 5.05273 2.40213L8.29297 7.36054H2.26367C1.77148 7.36054 1.35449 7.54666 1.0127 7.91892C0.670898 8.29117 0.5 8.73042 0.5 9.23669V10.2194C0.5 11.0533 0.855469 11.6191 1.56641 11.9169L3.98633 20.0022C4.0957 20.4192 4.31445 20.7988 4.64258 21.1413C4.9707 21.4838 5.33984 21.655 5.75 21.655H16.25C16.6602 21.655 17.0293 21.4838 17.3574 21.1413C17.6855 20.7988 17.9043 20.4192 18.0137 20.0022L20.4336 12.0062C21.1445 11.7084 21.5 11.1426 21.5 10.3088V9.32603C21.5 8.76021 21.3291 8.29117 20.9873 7.91892C20.6455 7.54666 20.2285 7.36054 19.7363 7.36054ZM2.26367 9.23669H9.60547L10.2207 10.1301C10.2754 10.1301 10.3027 10.1599 10.3027 10.2194H2.26367V9.23669ZM16.332 19.4662V19.5555C16.332 19.5853 16.3184 19.6151 16.291 19.6449C16.2637 19.6746 16.25 19.7044 16.25 19.7342H5.83203C5.77734 19.7342 5.75 19.6746 5.75 19.5555L3.49414 12.0956H18.5059L16.332 19.4662ZM11.7793 10.2194C11.9707 9.86207 12.0664 9.53449 12.0664 9.23669H19.7363V10.2194H11.7793ZM6.61133 18.0367C6.63867 18.2452 6.74805 18.4239 6.93945 18.5728C7.13086 18.7217 7.32227 18.7961 7.51367 18.7961H7.67773C7.89648 18.7366 8.07422 18.5877 8.21094 18.3494C8.34766 18.1112 8.375 17.8729 8.29297 17.6347L7.43164 13.8377C7.37695 13.5995 7.24023 13.4059 7.02148 13.257C6.80273 13.1081 6.58398 13.0783 6.36523 13.1677C6.14648 13.2272 5.96875 13.3761 5.83203 13.6144C5.69531 13.8526 5.66797 14.076 5.75 14.2844L6.61133 18.0367ZM14.3223 18.7961H14.4863C14.6777 18.7961 14.8691 18.7217 15.0605 18.5728C15.252 18.4239 15.3613 18.2452 15.3887 18.0367L16.25 14.1951C16.3047 13.9569 16.2705 13.7186 16.1475 13.4804C16.0244 13.2421 15.8535 13.1081 15.6348 13.0783C15.0605 12.9592 14.7051 13.1826 14.5684 13.7484L13.707 17.5454C13.543 18.141 13.748 18.5579 14.3223 18.7961ZM11 18.7961C11.5742 18.7961 11.8613 18.4685 11.8613 17.8134V14.0164C11.8613 13.391 11.5742 13.0783 11 13.0783C10.4258 13.0783 10.1387 13.391 10.1387 14.0164V17.8134C10.1387 18.4685 10.4258 18.7961 11 18.7961Z" fill="black"/>
</svg>
