<svg width="48" height="48" viewBox="0 0 48 48" fill="none" xmlns="http://www.w3.org/2000/svg">
<path d="M21.442 17.365C21.4419 16.9614 21.5574 16.5663 21.7749 16.2263C21.9924 15.8864 22.3028 15.6159 22.6692 15.4468C23.0356 15.2777 23.4429 15.2172 23.8426 15.2723C24.2424 15.3275 24.618 15.496 24.925 15.758L27.935 18.325L32.544 22.256C32.7765 22.4543 32.9632 22.7006 33.0912 22.9781C33.2193 23.2555 33.2856 23.5574 33.2856 23.863C33.2856 24.1686 33.2193 24.4705 33.0912 24.7479C32.9632 25.0254 32.7765 25.2717 32.544 25.47L27.935 29.4L24.925 31.968C24.618 32.23 24.2424 32.3985 23.8426 32.4537C23.4429 32.5088 23.0356 32.4483 22.6692 32.2792C22.3028 32.1101 21.9924 31.8396 21.7749 31.4997C21.5574 31.1597 21.4419 30.7646 21.442 30.361V27.078H5.25501C4.69487 27.078 4.15767 26.8555 3.7616 26.4594C3.36552 26.0633 3.14301 25.5261 3.14301 24.966V22.758C3.14327 22.1979 3.36587 21.6609 3.76189 21.2649C4.15791 20.8689 4.69495 20.6463 5.25501 20.646H21.442V17.365Z" fill="black"/>
<path d="M30.939 8.89999L34.194 8.83099C34.4751 8.825 34.7546 8.87521 35.0161 8.97866C35.2775 9.08211 35.5157 9.23673 35.7166 9.43344C35.9175 9.63016 36.0771 9.86502 36.1861 10.1242C36.295 10.3834 36.3511 10.6618 36.351 10.943L36.351 36.556C36.3511 37.1084 36.1348 37.6389 35.7484 38.0337C35.362 38.4285 34.8363 38.6562 34.284 38.668L30.85 38.741C30.2978 38.7525 29.7721 38.98 29.3857 39.3746C28.9993 39.7693 28.7829 40.2997 28.783 40.852V44.916C28.783 45.1938 28.8378 45.4688 28.9443 45.7254C29.0507 45.9819 29.2067 46.215 29.4034 46.4112C29.6 46.6074 29.8334 46.7628 30.0903 46.8687C30.3471 46.9745 30.6222 47.0287 30.9 47.028H41.808C42.3682 47.028 42.9054 46.8055 43.3014 46.4094C43.6975 46.0133 43.92 45.4761 43.92 44.916L43.92 2.81099C43.92 2.53369 43.8654 2.2591 43.7592 2.00292C43.6531 1.74673 43.4975 1.51397 43.3014 1.31794C43.1052 1.1219 42.8724 0.966427 42.6162 0.860397C42.3599 0.754368 42.0853 0.699863 41.808 0.699993H30.9C30.6226 0.699863 30.3479 0.754402 30.0916 0.860493C29.8353 0.966583 29.6025 1.12215 29.4063 1.31829C29.2102 1.51443 29.0546 1.74731 28.9485 2.00361C28.8424 2.25991 28.7879 2.5346 28.788 2.81199V6.78399C28.7874 7.06499 28.8429 7.34328 28.9513 7.60257C29.0596 7.86185 29.2186 8.0969 29.4189 8.29396C29.6192 8.49102 29.8569 8.64613 30.1179 8.75019C30.3789 8.85425 30.6581 8.90518 30.939 8.89999Z" fill="black"/>
</svg>
