<svg width="48" height="48" viewBox="0 0 48 48" fill="none" xmlns="http://www.w3.org/2000/svg">
<path d="M14.863 17.5C14.8617 17.097 14.7452 16.7028 14.5272 16.3639C14.3092 16.025 13.9988 15.7555 13.6326 15.5873C13.2664 15.4191 12.8598 15.3592 12.4606 15.4146C12.0615 15.47 11.6865 15.6384 11.38 15.9L8.36998 18.462L3.76098 22.393C3.52863 22.5914 3.34207 22.8378 3.21414 23.1152C3.08621 23.3926 3.01996 23.6945 3.01996 24C3.01996 24.3055 3.08621 24.6074 3.21414 24.8848C3.34207 25.1623 3.52863 25.4086 3.76098 25.607L8.36998 29.538L11.38 32.1C11.6865 32.3616 12.0615 32.53 12.4606 32.5854C12.8598 32.6408 13.2664 32.5809 13.6326 32.4127C13.9988 32.2445 14.3092 31.975 14.5272 31.6361C14.7452 31.2972 14.8617 30.903 14.863 30.5V27.218H31.05C31.3278 27.218 31.603 27.1632 31.8596 27.0567C32.1162 26.9502 32.3493 26.7941 32.5455 26.5973C32.7417 26.4005 32.8972 26.167 33.0029 25.9101C33.1087 25.6531 33.1628 25.3779 33.162 25.1V22.9C33.162 22.3399 32.9395 21.8027 32.5434 21.4066C32.1473 21.0105 31.6101 20.788 31.05 20.788H14.863L14.863 17.5Z" fill="black"/>
<path d="M30.816 9.033L34.071 8.964C34.352 8.95801 34.6314 9.00818 34.8928 9.11157C35.1542 9.21496 35.3923 9.36949 35.5932 9.5661C35.7941 9.76271 35.9537 9.99745 36.0627 10.2565C36.1717 10.5157 36.2279 10.7939 36.228 11.075V36.693C36.2268 37.2446 36.0099 37.7738 35.6237 38.1675C35.2374 38.5612 34.7124 38.7882 34.161 38.8L30.726 38.873C30.1737 38.8848 29.648 39.1125 29.2616 39.5073C28.8752 39.9021 28.6589 40.4326 28.659 40.985V45.052C28.659 45.6121 28.8815 46.1493 29.2776 46.5454C29.6737 46.9415 30.2109 47.164 30.771 47.164H41.685C41.9626 47.1644 42.2376 47.1101 42.4941 47.0041C42.7507 46.8981 42.9839 46.7426 43.1803 46.5465C43.3768 46.3503 43.5326 46.1174 43.6389 45.8609C43.7453 45.6045 43.8 45.3296 43.8 45.052V2.952C43.8 2.39186 43.5775 1.85467 43.1814 1.45859C42.7853 1.06252 42.2481 0.84 41.688 0.84H30.771C30.2109 0.84 29.6737 1.06252 29.2776 1.45859C28.8815 1.85467 28.659 2.39186 28.659 2.952V6.921C28.6589 7.20218 28.715 7.48054 28.824 7.73976C28.9329 7.99897 29.0925 8.23383 29.2934 8.43055C29.4943 8.62726 29.7325 8.78188 29.9939 8.88533C30.2554 8.98878 30.5349 9.03899 30.816 9.033Z" fill="black"/>
</svg>
