<svg width="3692" height="3692" viewBox="0 0 3692 3692" fill="none" xmlns="http://www.w3.org/2000/svg">
<circle cx="1846" cy="1845.83" r="1845.79" fill="#F9A95F"/>
<path d="M900.691 2099.02H605.332L563.74 2057.43V1973.04H648.129V2014.63H858.497V1930.85H605.332L563.74 1900.71V1719.87L605.332 1677.08H900.691L942.283 1719.87V1803.66H858.497V1761.47H648.129V1845.85H900.691L942.283 1888.05V2057.43L900.691 2099.02ZM1080.64 1888.65H1291.01V1761.47H1164.43L1080.64 1846.46V1888.65ZM1080.64 2099.02H996.255V1804.26L1122.23 1677.08H1374.8V2099.02H1291.01V1973.04H1080.64V2099.02ZM1813.48 2099.02H1729.7L1519.33 1817.52V2099.02H1434.94V1677.08H1519.33L1729.7 1957.97V1677.08H1813.48V2099.02ZM1951.84 1888.65H2162.21V1761.47H2035.63L1951.84 1846.46V1888.65ZM1951.84 2099.02H1867.45V1804.26L1993.43 1677.08H2246V2099.02H2162.21V1973.04H1951.84V2099.02ZM2390.52 1888.65H2600.89V1761.47H2390.52V1888.65ZM2684.68 2099.02H2600.89V2057.43L2558.7 2014.63L2516.5 1973.04H2390.52V2099.02H2306.14V1677.08H2643.09L2684.68 1719.87V1930.85L2643.09 1973.04L2684.68 2014.63V2099.02ZM2829.07 2014.63H3039.44V1761.47H2829.07V2014.63ZM3081.63 2099.02H2786.27L2744.68 2057.43V1719.87L2786.27 1677.08H3081.63L3123.22 1719.87V2057.43L3081.63 2099.02Z" fill="black"/>
</svg>
