<svg width="46" height="35" viewBox="0 0 46 35" fill="none" xmlns="http://www.w3.org/2000/svg">
<g clip-path="url(#clip0_4_2768)">
<path d="M43.896 18.3546C44.7319 18.3546 45.2891 18.9803 45.2891 19.7451C45.2891 20.5098 44.6622 21.2051 43.896 21.2051C43.1298 21.2051 42.503 20.5794 42.503 19.7451C42.503 18.9803 43.1298 18.3546 43.896 18.3546ZM43.896 18.146C43.0602 18.146 42.2939 18.8413 42.2939 19.7451C42.2939 20.6489 43.0602 21.3441 43.896 21.3441C44.8015 21.3441 45.4981 20.6489 45.4981 19.7451C45.4981 18.8413 44.8015 18.146 43.896 18.146ZM43.5477 19.0498H43.896C44.0353 19.0498 44.2443 19.0498 44.2443 19.3279C44.2443 19.606 44.0353 19.606 43.896 19.606H43.5477V19.0498ZM43.3388 20.5794H43.5477V19.8146H43.8264C44.105 19.8146 44.1746 19.8841 44.1746 20.1622C44.1746 20.4403 44.2443 20.5098 44.2443 20.5794H44.5229C44.4533 20.4403 44.4532 20.2318 44.4532 20.0231C44.4532 19.8146 44.3836 19.7451 44.1746 19.6755C44.5229 19.606 44.5229 19.3279 44.5229 19.2584C44.5229 18.8413 44.0353 18.8413 43.9657 18.8413H43.3388V20.5794Z" fill="white"/>
<path d="M2.31296 27.7402C3.14882 25.5154 4.05433 23.2906 5.23845 21.2049C10.2536 19.7449 11.2287 20.8573 11.2287 19.5363C11.2287 19.4668 11.2984 19.1887 10.8108 19.0496C10.1143 18.8411 8.37289 19.0496 6.21361 19.5363C7.18875 17.7287 8.30326 15.921 9.62667 14.322C12.5521 13.6962 13.597 13.4877 14.0845 13.4877C14.5721 13.4877 14.5721 13.6267 15.408 13.6267C15.7562 13.6267 16.0349 13.2791 16.0349 12.8619C16.0349 12.2362 14.9901 12.0972 14.5025 12.0972C12.9701 12.0972 10.4625 12.5839 8.99981 12.9315C8.44252 13.0705 7.18875 13.2791 7.18875 14.1134C7.18875 14.322 7.32807 14.6001 7.60671 14.6001C9.06944 12.1667 4.4026 19.9534 2.8702 22.6649C2.38262 23.7078 0.501953 27.7402 0.501953 28.7136C0.501953 29.1307 0.850225 29.6869 1.33781 29.6869C1.75573 29.6869 1.89504 29.3393 1.9647 28.9916L2.31296 27.7402Z" fill="white"/>
<path fill-rule="evenodd" clip-rule="evenodd" d="M9.20898 26.4193C9.20898 26.6974 9.41794 27.045 9.76621 27.045C10.3234 27.045 10.3931 26.4193 10.5324 26.0022C11.7165 21.9002 13.8061 19.884 13.8061 19.3278C13.8061 19.0497 13.5972 18.8411 13.3186 18.8411C12.4827 18.8411 9.20898 24.8897 9.20898 26.4193ZM15.7565 14.0439C15.1296 14.0439 14.2241 15.2258 14.2241 15.8516C14.2241 16.1992 14.433 16.4773 14.7813 16.4773C15.4779 16.4773 16.3834 15.2954 16.3834 14.6696C16.3834 14.2525 16.1744 14.0439 15.7565 14.0439Z" fill="white"/>
<path d="M15.4769 17.7982C15.1286 17.8678 14.5714 17.9373 14.5714 18.424C14.5714 18.7716 15.059 18.9801 15.3376 18.9801C15.5466 18.9801 15.6859 18.9106 15.8949 18.9106C14.1535 22.1783 13.7355 23.6383 13.7355 25.0983C13.6659 26.2802 14.5018 26.8365 15.1286 26.8365C16.3824 26.8365 17.4272 25.5155 18.0541 24.6117C18.2631 24.3336 19.099 23.0821 19.099 22.7345C19.099 22.5259 18.89 22.3868 18.681 22.3868C18.4024 22.3868 18.2631 22.5955 18.1238 22.804C17.6362 23.6383 16.4521 25.5155 15.5466 25.5155C15.1286 25.5155 14.9893 25.1679 14.9893 24.8202C14.9893 23.1516 16.661 19.884 17.5665 18.4935C18.5417 18.2154 19.5169 17.7982 20.492 17.7287C20.91 17.6592 21.3975 17.6592 21.3975 17.1725C21.3975 16.6859 21.0492 16.5468 20.6313 16.5468C20.0045 16.5468 19.2382 16.7554 18.6114 16.964C18.89 16.4077 20.0741 15.1563 20.0741 14.6001C20.0741 14.322 19.7955 14.0439 19.5865 14.0439C18.9596 14.0439 17.1486 16.964 16.7307 17.5897L15.4769 17.7982Z" fill="white"/>
<path fill-rule="evenodd" clip-rule="evenodd" d="M24.8115 25.9325C24.8115 26.2106 25.0205 26.5583 25.3688 26.5583C25.926 26.5583 25.9957 25.9325 26.1349 25.5153C27.3191 21.4134 29.4087 19.3972 29.4087 18.841C29.4087 18.5629 29.1998 18.3543 28.9211 18.3543C28.0156 18.3543 24.8115 24.403 24.8115 25.9325ZM31.3591 13.5571C30.7321 13.5571 29.8266 14.7391 29.8266 15.3648C29.8266 15.7124 30.0356 15.9905 30.3839 15.9905C31.0804 15.9905 31.9859 14.8086 31.9859 14.1829C31.9859 13.7657 31.777 13.5571 31.3591 13.5571Z" fill="white"/>
<path d="M31.7076 19.0499C30.9414 19.0499 28.8518 23.43 28.4338 24.3338C28.2249 24.6814 27.9463 25.3071 27.9463 25.7243C27.9463 26.0719 28.1552 26.35 28.5035 26.35C29.0607 26.35 29.3393 25.5852 29.5483 25.2376C30.3145 23.8471 31.22 22.5261 32.5434 21.6919L32.6131 21.7614C31.9166 22.8042 31.2897 24.1947 31.2897 25.5157C31.2897 26.2804 31.5683 27.81 32.5434 27.81C32.8221 27.81 33.1007 27.5319 33.1007 27.2538C33.1007 26.9062 32.5434 26.4891 32.5434 25.4462C32.6828 22.3176 35.469 20.3013 35.469 19.467C35.469 19.1194 35.26 18.8413 34.9117 18.8413C34.0062 18.8413 31.7076 21.0661 31.0807 21.8309L31.0111 21.7614C31.1504 21.2052 32.1952 20.0928 32.1952 19.5366C32.2648 19.2585 31.9862 19.0499 31.7076 19.0499Z" fill="white"/>
<path fill-rule="evenodd" clip-rule="evenodd" d="M36.5132 22.8042C36.5828 22.3176 37.0704 21.5528 37.6276 20.9271C38.1849 20.2318 38.8118 19.6756 39.2993 19.6756C39.5083 19.6756 39.578 19.7452 39.578 19.9537C39.578 20.4404 39.0207 21.0661 38.7421 21.3442C38.0455 22.0395 37.4187 22.5262 36.5132 22.8042ZM39.8566 18.2852C38.3938 18.2852 34.9111 21.2052 34.9111 24.3338C34.9111 25.5157 35.7469 26.2109 36.8615 26.2805C38.9511 26.35 42.1552 23.2909 42.2248 22.3871C42.2248 22.1785 42.0159 22.0395 41.8766 22.0395C41.389 22.0395 39.6476 24.9595 37.4883 24.9595C36.7221 24.9595 36.1649 24.5423 36.3042 23.7776C38.8118 23.1519 40.9014 20.7185 40.9014 19.189C40.8317 18.7023 40.3441 18.2852 39.8566 18.2852Z" fill="white"/>
<path d="M25.1592 19.8841C27.8061 15.3649 37.4881 3.19813 38.0453 1.18192C38.1846 0.556197 37.4184 0 36.7915 0C35.6771 0 34.4233 2.01621 33.7964 2.78098L28.224 10.3591C21.3979 20.0926 18.4028 25.7241 16.7311 30.7994C16.0345 32.8851 17.2186 34.2061 18.6117 33.928C20.3531 33.6499 21.189 33.2327 22.1641 32.8156C24.1144 31.9813 34.4929 31.0775 36.6522 31.0775C37.0005 31.0775 39.5777 31.7727 39.5777 29.826C39.5777 27.9489 30.035 27.5317 20.0048 30.5213C21.1193 26.767 23.1393 23.2908 25.1592 19.8841Z" fill="#CD0039"/>
</g>
<defs>
<clipPath id="clip0_4_2768">
<rect width="44.9967" height="34.31" fill="white" transform="translate(0.501953)"/>
</clipPath>
</defs>
</svg>
