<svg width="25" height="25" viewBox="0 0 25 25" fill="none" xmlns="http://www.w3.org/2000/svg">
<path fill-rule="evenodd" clip-rule="evenodd" d="M21.5 19.7483L16.3809 14.6292C17.2868 13.4296 17.824 11.9361 17.824 10.317C17.824 6.36157 14.6175 3.15503 10.662 3.15503C6.70654 3.15503 3.5 6.36157 3.5 10.317C3.5 14.2725 6.70654 17.479 10.662 17.479C12.281 17.479 13.7746 16.9418 14.9741 16.0359L20.0932 21.155L21.5 19.7483ZM15.8346 10.317C15.8346 13.1738 13.5187 15.4896 10.662 15.4896C7.80527 15.4896 5.48944 13.1738 5.48944 10.317C5.48944 7.4603 7.80527 5.14447 10.662 5.14447C13.5187 5.14447 15.8346 7.4603 15.8346 10.317Z" fill="black"/>
</svg>
