<svg width="48" height="48" viewBox="0 0 48 48" fill="none" xmlns="http://www.w3.org/2000/svg">
<path d="M24.197 20.686C29.827 20.686 34.391 16.122 34.391 10.492C34.391 4.86201 29.827 0.298 24.197 0.298C18.567 0.298 14.003 4.86201 14.003 10.492C14.003 16.122 18.567 20.686 24.197 20.686Z" fill="black"/>
<path d="M19.938 21.574H29.338C31.053 21.5731 32.7514 21.9101 34.3361 22.5657C35.9208 23.2214 37.3608 24.1829 38.5738 25.3952C39.7868 26.6076 40.7491 28.0471 41.4056 29.6315C42.0621 31.2158 42.4 32.914 42.4 34.629V47.7H6.884V34.629C6.884 31.1668 8.2593 27.8463 10.7074 25.3981C13.1554 22.9498 16.4758 21.5743 19.938 21.574Z" fill="black"/>
</svg>
