<svg width="70" height="67" viewBox="0 0 70 67" fill="none" xmlns="http://www.w3.org/2000/svg">
<g clip-path="url(#clip0_11_1950)">
<path d="M67.0921 28.6983C68.3388 28.6983 69.2856 29.7083 69.2856 30.8919C69.2856 32.1228 68.3072 33.1012 67.0921 33.1012C65.8927 33.1012 64.8985 32.1228 64.8985 30.8919C64.8985 29.6925 65.8927 28.6983 67.0921 28.6983ZM67.0921 28.3984C65.7664 28.3984 64.5986 29.4873 64.5986 30.8919C64.5986 32.2964 65.7507 33.4011 67.0921 33.4011C68.4492 33.4011 69.5855 32.2964 69.5855 30.8919C69.5855 29.5189 68.465 28.3984 67.0921 28.3984ZM66.5555 29.8503H67.1394C67.3446 29.8503 67.6602 29.8503 67.6602 30.2764C67.6602 30.6867 67.313 30.6867 67.1394 30.6867H66.5555V29.8503ZM66.1925 32.2175H66.5555V31.0023H67.0132C67.455 31.0023 67.5497 31.1128 67.5971 31.5231C67.6444 31.9492 67.676 32.0439 67.7233 32.2175H68.1021C68.0074 31.9492 67.9916 31.6967 67.9442 31.3811C67.8969 31.0497 67.818 30.9392 67.5339 30.8603C68.0389 30.7183 68.0389 30.2922 68.0389 30.2133C68.0389 29.5347 67.3288 29.5347 67.1236 29.5347H66.1768V32.2175H66.1925Z" fill="#A7A9AC"/>
<path d="M2.84647 43.2801C4.09318 39.8083 5.57661 36.368 7.37567 33.1328C15.1716 30.8761 16.6077 32.5805 16.6077 30.5921C16.6077 30.4342 16.7655 30.0082 15.9448 29.8188C14.8559 29.5505 12.2047 29.8661 8.89066 30.5605C10.4057 27.7514 12.1258 24.9897 14.1458 22.4805C18.7066 21.4705 20.3005 21.2338 21.0895 21.1865C21.8628 21.1865 21.8312 21.4232 23.1253 21.4232C23.7092 21.4232 24.1353 20.8393 24.1353 20.2554C24.1353 19.2454 22.494 19.1191 21.7523 19.1191C19.3694 19.1191 15.5503 19.8609 13.2147 20.4448C12.3625 20.6815 10.4057 20.9971 10.4057 22.2438C10.4057 22.591 10.6424 22.9855 11.0685 22.9855C13.3725 19.1665 6.11317 31.3022 3.746 35.5C2.89381 37.015 0.00585938 43.217 0.00585938 44.7478C0.00585938 45.4106 0.558201 46.2628 1.25257 46.2628C1.88382 46.2628 2.07319 45.6789 2.23101 45.2054L2.84647 43.2801Z" fill="#A7A9AC"/>
<path fill-rule="evenodd" clip-rule="evenodd" d="M13.4834 41.1967C13.4834 41.6702 13.8306 42.1278 14.3356 42.1278C15.1878 42.1278 15.3456 41.1494 15.5507 40.4866C17.4287 34.1741 20.5849 31.0494 20.5849 30.1815C20.5849 29.7554 20.2377 29.4398 19.8432 29.4398C18.486 29.4556 13.4834 38.8296 13.4834 41.1967ZM23.6307 22.0068C22.6207 22.0068 21.2162 23.8848 21.2162 24.8474C21.2162 25.3998 21.5634 25.7785 22.1157 25.7785C23.173 25.7785 24.5776 23.9479 24.5776 22.9221C24.5618 22.4014 24.2146 22.0068 23.6307 22.0068Z" fill="#A7A9AC"/>
<path d="M23.2045 27.8932C22.6206 27.9721 21.7999 28.1299 21.7999 28.8716C21.7999 29.4555 22.5417 29.7711 23.0151 29.7711C23.2834 29.7711 23.5674 29.6922 23.8357 29.6133C21.1056 34.6475 20.5217 36.9516 20.5217 39.1294C20.3639 41.0073 21.6895 41.828 22.6679 41.828C24.5774 41.828 26.2187 39.7606 27.2287 38.3561C27.5759 37.8827 28.8699 36.0205 28.8699 35.4366C28.8699 35.121 28.5543 34.8842 28.2387 34.8842C27.8441 34.8842 27.6232 35.2314 27.418 35.547C26.6763 36.7938 24.8773 39.7606 23.4096 39.7606C22.7468 39.7606 22.5574 39.2083 22.5574 38.6717C22.5574 36.131 25.1771 31.0652 26.5659 28.84C28.0493 28.4455 29.5643 27.7827 31.0477 27.6249C31.679 27.546 32.4838 27.546 32.4838 26.7254C32.4838 26.031 31.9788 25.7943 31.3476 25.7943C30.3691 25.7943 29.1698 26.1415 28.1913 26.4255C28.6174 25.526 30.4165 23.5849 30.4165 22.7643C30.4165 22.3698 30.0219 21.9121 29.6432 21.9121C28.6332 21.9121 25.9031 26.4729 25.2718 27.4513L23.2045 27.8932Z" fill="#A7A9AC"/>
<path fill-rule="evenodd" clip-rule="evenodd" d="M37.5654 40.4546C37.5654 40.928 37.9126 41.3856 38.4176 41.3856C39.2698 41.3856 39.4276 40.4072 39.6328 39.7444C41.5107 33.4319 44.667 30.3073 44.667 29.4393C44.667 29.0132 44.3198 28.6976 43.9252 28.6976C42.5523 28.7134 37.5654 38.0874 37.5654 40.4546ZM47.6969 21.2646C46.687 21.2646 45.2824 23.1426 45.2824 24.1053C45.2824 24.6576 45.6296 25.0363 46.182 25.0363C47.2393 25.0363 48.6438 23.2057 48.6438 22.1957C48.6438 21.6592 48.2809 21.2646 47.6969 21.2646Z" fill="#A7A9AC"/>
<path d="M48.1854 29.7709C46.9703 29.7709 43.814 36.5568 43.1196 37.9613C42.8514 38.5452 42.3779 39.5237 42.3779 40.1391C42.3779 40.6915 42.6936 41.1176 43.2775 41.1176C44.0981 41.1176 44.6031 39.9024 44.9187 39.3659C46.0865 37.2196 47.491 35.1996 49.5268 33.874L49.6057 33.9529C48.5168 35.5468 47.5857 37.7404 47.5857 39.7604C47.5857 40.9282 47.9802 43.3427 49.5426 43.3427C49.9687 43.3427 50.3632 42.9482 50.3632 42.5221C50.3632 42.0171 49.511 41.3858 49.511 39.713C49.7004 34.884 53.9929 31.7909 54.0402 30.4653C54.0402 29.8814 53.7246 29.5342 53.2196 29.5342C51.7835 29.5342 48.2643 33.006 47.3017 34.1423L47.2228 34.0634C47.4595 33.2112 49.1007 31.491 49.1007 30.6389C49.0376 30.1496 48.6431 29.7709 48.1854 29.7709Z" fill="#A7A9AC"/>
<path fill-rule="evenodd" clip-rule="evenodd" d="M55.6658 35.6255C55.8236 34.9154 56.5653 33.716 57.4175 32.706C58.2697 31.6487 59.2954 30.7965 59.9582 30.7965C60.2265 30.7965 60.3843 30.9543 60.3843 31.2226C60.3843 31.9169 59.4848 32.9427 59.0587 33.4004C58.0487 34.4893 57.0387 35.1836 55.6658 35.6255ZM60.8104 28.666C58.5853 28.666 53.125 33.1479 53.125 38.0716C53.125 39.9496 54.3717 40.9911 56.1234 41.07C59.327 41.1805 64.2665 36.4304 64.3928 35.0574C64.4243 34.7891 64.1245 34.5051 63.8404 34.5051C63.0671 34.5051 60.4159 39.0342 57.0545 39.0342C55.8867 39.0342 55.0187 38.3714 55.2239 37.1563C59.1218 36.1463 62.2781 32.3904 62.2781 30.0548C62.2939 29.2657 61.5995 28.666 60.8104 28.666Z" fill="#A7A9AC"/>
<path d="M38.0857 31.0651C42.1888 24.0425 57.1651 5.27869 57.9542 2.12245C58.1909 1.17558 57.0073 0.307617 56.0605 0.307617C54.3245 0.307617 52.3519 3.38495 51.405 4.64744L42.82 16.4044C32.2624 31.4754 27.6859 40.1393 25.082 48.0299C23.9773 51.265 25.8711 53.3166 28.0015 52.9221C30.6843 52.4486 31.9468 51.8963 33.5249 51.1861C36.5234 49.8447 52.5728 48.5033 55.8869 48.5033C56.4392 48.5033 60.3845 49.608 60.3845 46.5307C60.3845 43.6112 45.6764 42.9799 30.1478 47.6354C31.8679 41.7174 35.0241 36.3518 38.0857 31.0651Z" fill="#D11242"/>
<path d="M3.36745 64.789L3.35166 65.2467H0.0849609V59.6602H3.22541L3.2412 60.1178H0.542615V62.1062H2.87823V62.5323H0.542615V64.789H3.36745Z" fill="#A7A9AC" stroke="#A7A9AC" stroke-width="0.109158" stroke-miterlimit="10"/>
<path d="M5.81292 63.2425L4.59777 65.2467H4.09277L5.52886 63.0058L4.12434 60.8438H4.64511L5.8287 62.7691L6.99651 60.8438H7.50151L6.12854 62.99L7.54885 65.2467H7.01229L5.81292 63.2425Z" fill="#A7A9AC" stroke="#A7A9AC" stroke-width="0.109158" stroke-miterlimit="10"/>
<path d="M10.295 65.3422C9.80581 65.3422 9.36394 65.1844 9.0641 64.774H9.04832V65.3737V66.3206H8.60645V60.8603L8.92207 60.8287L9.01676 61.3337H9.03254C9.3166 60.9708 9.79003 60.7656 10.3266 60.7656C11.3524 60.7656 11.9363 61.318 11.9363 63.0381C11.9521 64.7109 11.3208 65.3422 10.295 65.3422ZM10.2635 61.2075C9.74269 61.2075 9.33238 61.4127 9.0641 61.823V64.3006C9.25347 64.632 9.63222 64.9476 10.2161 64.9476C10.9736 64.9476 11.5102 64.5531 11.5102 63.0539C11.5102 61.602 11.0525 61.2075 10.2635 61.2075Z" fill="#A7A9AC" stroke="#A7A9AC" stroke-width="0.109158" stroke-miterlimit="10"/>
<path d="M12.7725 62.8961C12.7725 61.5073 13.3406 60.7656 14.4453 60.7656C15.3921 60.7656 16.0549 61.3653 16.0549 62.8014C16.0549 62.8645 16.0549 62.9592 16.0392 63.0223H13.2143C13.2301 64.4269 13.6878 64.9161 14.682 64.9161C15.1239 64.9161 15.4868 64.8056 15.834 64.6004L15.8971 64.995C15.5342 65.2159 15.1239 65.3422 14.6346 65.3422C13.309 65.3422 12.7725 64.6005 12.7725 62.8961ZM15.6446 62.7067C15.6289 61.602 15.1396 61.1759 14.4295 61.1759C13.6089 61.1759 13.2301 61.6967 13.1986 62.7067H15.6446Z" fill="#A7A9AC" stroke="#A7A9AC" stroke-width="0.109158" stroke-miterlimit="10"/>
<path d="M17.1123 65.2475V60.8603L17.4595 60.8287L17.4753 61.318L17.4911 61.9176H17.5068C17.7436 61.2233 18.2328 60.7656 18.8798 60.7656C19.0218 60.7656 19.1639 60.7814 19.2743 60.813L19.2428 61.2864C19.1165 61.2391 18.9903 61.2233 18.864 61.2233C18.1539 61.2233 17.5542 61.9177 17.5542 62.975V65.2159H17.1123V65.2475Z" fill="#A7A9AC" stroke="#A7A9AC" stroke-width="0.109158" stroke-miterlimit="10"/>
<path d="M20.6478 59.9447C20.4269 59.9447 20.3164 59.8658 20.3164 59.6291C20.3164 59.4239 20.4427 59.3135 20.6478 59.3135C20.8687 59.3135 20.9792 59.4239 20.9792 59.6291C20.9792 59.85 20.853 59.9447 20.6478 59.9447ZM20.4269 65.2472V60.86L20.8687 60.8285V65.2472H20.4269Z" fill="#A7A9AC" stroke="#A7A9AC" stroke-width="0.109158" stroke-miterlimit="10"/>
<path d="M22.1465 62.8961C22.1465 61.5073 22.7146 60.7656 23.8193 60.7656C24.7662 60.7656 25.429 61.3653 25.429 62.8014C25.429 62.8645 25.429 62.9592 25.4132 63.0223H22.5884C22.6041 64.4269 23.0618 64.9161 24.056 64.9161C24.4979 64.9161 24.8608 64.8056 25.208 64.6004L25.2712 64.995C24.9082 65.2159 24.4979 65.3422 24.0087 65.3422C22.683 65.3422 22.1465 64.6005 22.1465 62.8961ZM25.0187 62.7067C25.0029 61.602 24.5137 61.1759 23.8035 61.1759C22.9829 61.1759 22.6041 61.6967 22.5726 62.7067H25.0187Z" fill="#A7A9AC" stroke="#A7A9AC" stroke-width="0.109158" stroke-miterlimit="10"/>
<path d="M29.1691 65.2473V62.2805C29.1691 61.523 28.7746 61.2073 28.0644 61.2073C27.6541 61.2073 27.1491 61.4125 26.9124 61.807V65.2631H26.4863V60.8602L26.7862 60.8286L26.8651 61.3652H26.8809C27.1649 61.0022 27.6541 60.7812 28.1591 60.7812C29.0429 60.7812 29.5952 61.2705 29.5952 62.2805V65.2631L29.1691 65.2473Z" fill="#A7A9AC" stroke="#A7A9AC" stroke-width="0.109158" stroke-miterlimit="10"/>
<path d="M33.3358 61.4439C33.0675 61.3019 32.7519 61.2072 32.4047 61.2072C31.4262 61.2072 31.0317 61.7437 31.0317 63.0062C31.0317 64.4265 31.4894 64.9473 32.3889 64.9473C32.7519 64.9473 33.0991 64.8369 33.3515 64.6475L33.3989 65.042C33.1464 65.2314 32.7519 65.3734 32.31 65.3734C31.158 65.3734 30.5898 64.679 30.5898 63.022C30.5898 61.5228 31.1106 60.7969 32.3258 60.7969C32.7203 60.7969 33.099 60.9073 33.3673 61.0494L33.3358 61.4439Z" fill="#A7A9AC" stroke="#A7A9AC" stroke-width="0.109158" stroke-miterlimit="10"/>
<path d="M34.0615 62.8961C34.0615 61.5073 34.6296 60.7656 35.7343 60.7656C36.6812 60.7656 37.344 61.3653 37.344 62.8014C37.344 62.8645 37.344 62.9592 37.3282 63.0223H34.5034C34.5192 64.4269 34.9768 64.9161 35.971 64.9161C36.4129 64.9161 36.7759 64.8056 37.1231 64.6004L37.1862 64.995C36.8232 65.2159 36.4129 65.3422 35.9237 65.3422C34.5823 65.3422 34.0615 64.6005 34.0615 62.8961ZM36.9337 62.7067C36.9179 61.602 36.4287 61.1759 35.7185 61.1759C34.8979 61.1759 34.5192 61.6967 34.4876 62.7067H36.9337Z" fill="#A7A9AC" stroke="#A7A9AC" stroke-width="0.109158" stroke-miterlimit="10"/>
<path d="M40.6738 65.2475V60.8603L41.021 60.8287L41.0368 61.318L41.0526 61.9176H41.0684C41.3051 61.2233 41.7943 60.7656 42.4413 60.7656C42.5833 60.7656 42.7254 60.7814 42.8358 60.813L42.8043 61.2864C42.678 61.2391 42.5518 61.2233 42.4255 61.2233C41.7154 61.2233 41.1157 61.9177 41.1157 62.975V65.2159H40.6738V65.2475Z" fill="#A7A9AC" stroke="#A7A9AC" stroke-width="0.109158" stroke-miterlimit="10"/>
<path d="M43.4043 62.8961C43.4043 61.5073 43.9724 60.7656 45.0771 60.7656C46.024 60.7656 46.6868 61.3653 46.6868 62.8014C46.6868 62.8645 46.6868 62.9592 46.671 63.0223H43.8462C43.8619 64.4269 44.3196 64.9161 45.3138 64.9161C45.7557 64.9161 46.1187 64.8056 46.4658 64.6004L46.529 64.995C46.166 65.2159 45.7557 65.3422 45.2665 65.3422C43.9409 65.3422 43.4043 64.6005 43.4043 62.8961ZM46.2923 62.7067C46.2765 61.602 45.7873 61.1759 45.0771 61.1759C44.2565 61.1759 43.8777 61.6967 43.8462 62.7067H46.2923Z" fill="#A7A9AC" stroke="#A7A9AC" stroke-width="0.109158" stroke-miterlimit="10"/>
<path d="M48.7851 65.3422C48.2801 65.3422 47.8225 65.2001 47.5068 64.9319L47.5857 64.5215C47.8856 64.7898 48.359 64.9319 48.7851 64.9319C49.4953 64.9319 49.7951 64.5531 49.7951 64.0481C49.7951 62.8645 47.5384 63.3695 47.5384 61.9176C47.5384 61.2075 48.0276 60.7656 48.9271 60.7656C49.3217 60.7656 49.7004 60.8445 50.0318 61.0181L49.9845 61.4127C49.6373 61.2548 49.2585 61.1602 48.9114 61.1602C48.3117 61.1602 47.9329 61.4442 47.9329 61.8861C47.9329 62.9908 50.1896 62.4384 50.1896 63.985C50.1896 64.8214 49.7635 65.3422 48.7851 65.3422Z" fill="#A7A9AC" stroke="#A7A9AC" stroke-width="0.109158" stroke-miterlimit="10"/>
<path d="M54.2612 63.858C54.2612 64.789 53.7562 65.3414 52.6989 65.3414C51.6573 65.3414 51.1523 64.789 51.1523 63.858V60.8438H51.5784V63.8422C51.5784 64.5365 51.9572 64.8995 52.6989 64.8995C53.4406 64.8995 53.8351 64.5365 53.8351 63.8422V60.8438H54.2612V63.858Z" fill="#A7A9AC" stroke="#A7A9AC" stroke-width="0.109158" stroke-miterlimit="10"/>
<path d="M55.6973 65.2467V59.2972L56.1234 59.2656V65.2467H55.6973Z" fill="#A7A9AC" stroke="#A7A9AC" stroke-width="0.109158" stroke-miterlimit="10"/>
<path d="M58.3174 61.2067V64.1894C58.3174 64.7259 58.5857 64.9311 58.996 64.9311C59.1223 64.9311 59.2643 64.9153 59.359 64.8679L59.3905 65.2309C59.2801 65.2783 59.0749 65.3256 58.8855 65.3256C58.2385 65.3256 57.8755 64.9626 57.8755 64.2209V61.2225H57.2285V60.8595H57.8913L57.9702 59.7075L58.3174 59.6602V60.8595H59.4221V61.2225H58.3174V61.2067Z" fill="#A7A9AC" stroke="#A7A9AC" stroke-width="0.109158" stroke-miterlimit="10"/>
<path d="M61.4101 65.3422C60.9051 65.3422 60.4475 65.2001 60.1318 64.9319L60.2107 64.5215C60.5106 64.7898 60.984 64.9319 61.4101 64.9319C62.1203 64.9319 62.4201 64.5531 62.4201 64.0481C62.4201 62.8645 60.1634 63.3695 60.1634 61.9176C60.1634 61.2075 60.6526 60.7656 61.5521 60.7656C61.9467 60.7656 62.3254 60.8445 62.6568 61.0181L62.6095 61.4127C62.2623 61.2548 61.8835 61.1602 61.5364 61.1602C60.9367 61.1602 60.5579 61.4442 60.5579 61.8861C60.5579 62.9908 62.8146 62.4384 62.8146 63.985C62.8304 64.8214 62.3885 65.3422 61.4101 65.3422Z" fill="#A7A9AC" stroke="#A7A9AC" stroke-width="0.109158" stroke-miterlimit="10"/>
<path d="M64.0454 65.3262C63.8245 65.3262 63.6982 65.2315 63.6982 64.979C63.6982 64.7581 63.8087 64.6318 64.0454 64.6318C64.2664 64.6318 64.3768 64.7581 64.3768 64.979C64.3768 65.2 64.2664 65.3262 64.0454 65.3262Z" fill="#A7A9AC" stroke="#A7A9AC" stroke-width="0.109158" stroke-miterlimit="10"/>
</g>
<defs>
<clipPath id="clip0_11_1950">
<rect width="69.5792" height="66.06" fill="white" transform="translate(0.00585938 0.307617)"/>
</clipPath>
</defs>
</svg>
