<svg width="48" height="48" viewBox="0 0 48 48" fill="none" xmlns="http://www.w3.org/2000/svg">
<g clip-path="url(#clip0_603_1359)">
<path d="M24 0.5C19.3241 0.499802 14.7533 1.88618 10.8654 4.48381C6.97747 7.08144 3.94719 10.7737 2.15774 15.0935C0.368282 19.4134 -0.0999731 24.1669 0.812188 28.7529C1.72435 33.3389 3.97596 37.5514 7.28227 40.8577C10.5886 44.164 14.8011 46.4156 19.3871 47.3278C23.9731 48.24 28.7266 47.7717 33.0465 45.9822C37.3663 44.1928 41.0585 41.1625 43.6562 37.2746C46.2538 33.3867 47.6402 28.8158 47.64 24.14C47.6397 17.8704 45.149 11.8576 40.7157 7.42429C36.2824 2.99099 30.2696 0.500265 24 0.5V0.5ZM35.746 18.32L20.99 33.156C20.8923 33.2537 20.7763 33.3312 20.6486 33.3841C20.521 33.437 20.3842 33.4642 20.246 33.4642C20.1078 33.4642 19.971 33.437 19.8433 33.3841C19.7157 33.3312 19.5997 33.2537 19.502 33.156L12.258 25.956C12.1603 25.8583 12.0827 25.7423 12.0298 25.6147C11.977 25.487 11.9497 25.3502 11.9497 25.212C11.9497 25.0738 11.977 24.937 12.0298 24.8093C12.0827 24.6817 12.1603 24.5657 12.258 24.468L13.975 22.741C14.0727 22.6433 14.1887 22.5658 14.3163 22.5129C14.444 22.46 14.5808 22.4328 14.719 22.4328C14.8572 22.4328 14.994 22.46 15.1216 22.5129C15.2493 22.5658 15.3653 22.6433 15.463 22.741L20.235 27.485L32.535 15.117C32.6327 15.0193 32.7487 14.9418 32.8763 14.8889C33.004 14.836 33.1408 14.8088 33.279 14.8088C33.4172 14.8088 33.554 14.836 33.6816 14.8889C33.8093 14.9418 33.9253 15.0193 34.023 15.117L35.75 16.834C35.9449 17.0314 36.0539 17.2979 36.0532 17.5753C36.0524 17.8528 35.942 18.1186 35.746 18.315V18.32Z" fill="#FF0060"/>
</g>
<defs>
<clipPath id="clip0_603_1359">
<rect width="48" height="48" fill="white"/>
</clipPath>
</defs>
</svg>
